<mxfile host="app.diagrams.net" modified="2024-04-23T03:30:31.212Z" agent="Mozilla/5.0 (Windows NT 10.0; Win64; x64) AppleWebKit/537.36 (KHTML, like Gecko) Chrome/124.0.0.0 Safari/537.36" etag="4oQ6mtIWaGUOIebnHXHi" version="24.2.7" type="device">
  <diagram name="Page-1" id="HnKYiz1Jxurv2w36RStD">
    <mxGraphModel dx="1909" dy="1107" grid="1" gridSize="10" guides="1" tooltips="1" connect="1" arrows="1" fold="1" page="1" pageScale="1" pageWidth="850" pageHeight="1100" background="#000000" math="0" shadow="0">
      <root>
        <mxCell id="0" />
        <mxCell id="1" parent="0" />
        <mxCell id="H61x0Zo6AqR9K-A-DZUH-7" style="edgeStyle=orthogonalEdgeStyle;rounded=0;orthogonalLoop=1;jettySize=auto;html=1;exitX=0.5;exitY=1;exitDx=0;exitDy=0;exitPerimeter=0;entryX=0.5;entryY=0;entryDx=0;entryDy=0;strokeColor=#FFFFFF;strokeWidth=3;" edge="1" parent="1" source="H61x0Zo6AqR9K-A-DZUH-1" target="H61x0Zo6AqR9K-A-DZUH-2">
          <mxGeometry relative="1" as="geometry" />
        </mxCell>
        <mxCell id="H61x0Zo6AqR9K-A-DZUH-1" value="&lt;span style=&quot;color: rgb(255, 255, 255); font-size: 16px; text-wrap: wrap;&quot;&gt;Execute Additional Features Function&lt;/span&gt;" style="verticalLabelPosition=middle;verticalAlign=middle;html=1;shape=mxgraph.flowchart.on-page_reference;fillColor=none;strokeColor=#FFFFFF;strokeWidth=10;labelPosition=center;align=center;fontSize=16;" vertex="1" parent="1">
          <mxGeometry x="1220" y="10" width="110" height="110" as="geometry" />
        </mxCell>
        <mxCell id="H61x0Zo6AqR9K-A-DZUH-2" value="&lt;div style=&quot;display: flex; justify-content: center; text-align: center; align-items: baseline; line-height: 1.25; margin-top: -2px;&quot;&gt;&lt;font style=&quot;&quot;&gt;&lt;font style=&quot;font-size: 18px;&quot;&gt;Execute Additional Features Function&lt;/font&gt;&lt;/font&gt;&lt;/div&gt;" style="html=1;overflow=block;blockSpacing=1;whiteSpace=wrap;fontSize=13;spacing=3.8;strokeColor=#006EAF;rounded=1;absoluteArcSize=1;arcSize=9;fillColor=#1ba1e2;strokeWidth=NaN;lucidId=51avJGUS.d6e;fontColor=#ffffff;" vertex="1" parent="1">
          <mxGeometry x="1197.1" y="160" width="156" height="90" as="geometry" />
        </mxCell>
        <mxCell id="H61x0Zo6AqR9K-A-DZUH-3" value="" style="html=1;jettySize=18;whiteSpace=wrap;fontSize=13;strokeColor=#FFFFFF;strokeOpacity=100;strokeWidth=3;rounded=1;arcSize=24;edgeStyle=orthogonalEdgeStyle;startArrow=none;endArrow=block;endFill=1;exitX=0.5;exitY=1.004;exitPerimeter=0;entryX=0.5;entryY=-0.004;entryPerimeter=0;lucidId=M-avfqYe2V_c;fillColor=#1ba1e2;" edge="1" parent="1" source="H61x0Zo6AqR9K-A-DZUH-2" target="H61x0Zo6AqR9K-A-DZUH-4">
          <mxGeometry width="100" height="100" relative="1" as="geometry">
            <Array as="points" />
          </mxGeometry>
        </mxCell>
        <mxCell id="H61x0Zo6AqR9K-A-DZUH-4" value="Display Additional Menu" style="html=1;overflow=block;blockSpacing=1;whiteSpace=wrap;fontSize=16.7;spacing=3.8;strokeColor=#006EAF;rounded=1;absoluteArcSize=1;arcSize=9;fillColor=#1ba1e2;strokeWidth=NaN;lucidId=M-avD~cvcVE-;fontColor=#ffffff;" vertex="1" parent="1">
          <mxGeometry x="1206.6" y="285" width="137" height="90" as="geometry" />
        </mxCell>
        <mxCell id="H61x0Zo6AqR9K-A-DZUH-5" value="" style="html=1;jettySize=18;whiteSpace=wrap;fontSize=13;strokeColor=#FFFFFF;strokeOpacity=100;strokeWidth=3;rounded=1;arcSize=24;edgeStyle=orthogonalEdgeStyle;startArrow=none;endArrow=block;endFill=1;exitX=0.5;exitY=1.004;exitPerimeter=0;entryX=0.5;entryY=0;lucidId=Z_avLD7_3N8Z;fillColor=#1ba1e2;entryDx=0;entryDy=0;" edge="1" parent="1" source="H61x0Zo6AqR9K-A-DZUH-4" target="H61x0Zo6AqR9K-A-DZUH-6">
          <mxGeometry width="100" height="100" relative="1" as="geometry">
            <Array as="points" />
            <mxPoint x="1194.6" y="420.346" as="targetPoint" />
          </mxGeometry>
        </mxCell>
        <mxCell id="H61x0Zo6AqR9K-A-DZUH-6" value="&lt;div&gt;&lt;span style=&quot;font-size: 18px;&quot;&gt;Choosing&amp;nbsp;&lt;/span&gt;&lt;/div&gt;&lt;div&gt;&lt;font style=&quot;font-size: 18px;&quot;&gt;Features&lt;/font&gt;&lt;/div&gt;" style="html=1;overflow=block;blockSpacing=1;whiteSpace=wrap;rhombus;fontSize=16.7;fontColor=#ffffff;spacing=3.8;strokeColor=#006EAF;rounded=1;absoluteArcSize=1;arcSize=9;fillColor=#1ba1e2;strokeWidth=NaN;lucidId=x_avSaIK2IV_;" vertex="1" parent="1">
          <mxGeometry x="1194" y="420" width="162.2" height="122" as="geometry" />
        </mxCell>
        <mxCell id="H61x0Zo6AqR9K-A-DZUH-64" style="edgeStyle=orthogonalEdgeStyle;rounded=0;orthogonalLoop=1;jettySize=auto;html=1;exitX=0.5;exitY=1;exitDx=0;exitDy=0;entryX=0.5;entryY=0;entryDx=0;entryDy=0;strokeColor=#FFFFFF;strokeWidth=3;" edge="1" parent="1" source="H61x0Zo6AqR9K-A-DZUH-65" target="H61x0Zo6AqR9K-A-DZUH-88">
          <mxGeometry relative="1" as="geometry" />
        </mxCell>
        <mxCell id="H61x0Zo6AqR9K-A-DZUH-65" value="Execute Search Journal Function" style="html=1;overflow=block;blockSpacing=1;whiteSpace=wrap;fontSize=17;spacing=3.8;strokeColor=#006EAF;rounded=1;absoluteArcSize=1;arcSize=9;fillColor=#1ba1e2;strokeWidth=NaN;lucidId=h.avaaxgTNCP;fontColor=#ffffff;" vertex="1" parent="1">
          <mxGeometry x="756.9" y="714" width="137" height="90" as="geometry" />
        </mxCell>
        <mxCell id="H61x0Zo6AqR9K-A-DZUH-66" style="edgeStyle=orthogonalEdgeStyle;rounded=0;orthogonalLoop=1;jettySize=auto;html=1;exitX=0.5;exitY=1;exitDx=0;exitDy=0;entryX=0.5;entryY=0;entryDx=0;entryDy=0;strokeColor=#FFFFFF;strokeWidth=3;" edge="1" parent="1" source="H61x0Zo6AqR9K-A-DZUH-67" target="H61x0Zo6AqR9K-A-DZUH-100">
          <mxGeometry relative="1" as="geometry" />
        </mxCell>
        <mxCell id="H61x0Zo6AqR9K-A-DZUH-67" value="&lt;div style=&quot;display: flex; justify-content: center; text-align: center; align-items: baseline; line-height: 1.25; margin-top: -2px;&quot;&gt;&lt;font style=&quot;&quot;&gt;&lt;font style=&quot;font-size: 18px;&quot;&gt;Execute Sort Journal Function&lt;/font&gt;&lt;/font&gt;&lt;/div&gt;" style="html=1;overflow=block;blockSpacing=1;whiteSpace=wrap;fontSize=13;spacing=3.8;strokeColor=#006EAF;rounded=1;absoluteArcSize=1;arcSize=9;fillColor=#1ba1e2;strokeWidth=NaN;lucidId=h.avo_qA4~c-;fontColor=#ffffff;" vertex="1" parent="1">
          <mxGeometry x="936.9" y="714" width="140" height="90" as="geometry" />
        </mxCell>
        <mxCell id="H61x0Zo6AqR9K-A-DZUH-68" style="edgeStyle=orthogonalEdgeStyle;rounded=0;orthogonalLoop=1;jettySize=auto;html=1;exitX=0.5;exitY=1;exitDx=0;exitDy=0;entryX=0.5;entryY=0;entryDx=0;entryDy=0;strokeColor=#FFFFFF;strokeWidth=3;" edge="1" parent="1" source="H61x0Zo6AqR9K-A-DZUH-69" target="H61x0Zo6AqR9K-A-DZUH-104">
          <mxGeometry relative="1" as="geometry" />
        </mxCell>
        <mxCell id="H61x0Zo6AqR9K-A-DZUH-69" value="&lt;div style=&quot;display: flex; justify-content: center; text-align: center; align-items: baseline; line-height: 1.25; margin-top: -2px;&quot;&gt;&lt;font style=&quot;font-size: 18px;&quot;&gt;Execute Filter Journal by Year&amp;nbsp;Function&lt;/font&gt;&lt;/div&gt;" style="html=1;overflow=block;blockSpacing=1;whiteSpace=wrap;fontSize=13;spacing=3.8;strokeColor=#006EAF;rounded=1;absoluteArcSize=1;arcSize=9;fillColor=#1ba1e2;strokeWidth=NaN;lucidId=h.avfyT31Oo9;fontColor=#ffffff;" vertex="1" parent="1">
          <mxGeometry x="1116.8999999999999" y="714" width="137" height="90" as="geometry" />
        </mxCell>
        <mxCell id="H61x0Zo6AqR9K-A-DZUH-70" style="edgeStyle=orthogonalEdgeStyle;rounded=0;orthogonalLoop=1;jettySize=auto;html=1;exitX=0.5;exitY=1;exitDx=0;exitDy=0;entryX=0.5;entryY=0;entryDx=0;entryDy=0;strokeColor=#FFFFFF;strokeWidth=3;" edge="1" parent="1" source="H61x0Zo6AqR9K-A-DZUH-71" target="H61x0Zo6AqR9K-A-DZUH-110">
          <mxGeometry relative="1" as="geometry" />
        </mxCell>
        <mxCell id="H61x0Zo6AqR9K-A-DZUH-71" value="&lt;div style=&quot;display: flex; justify-content: center; text-align: center; align-items: baseline; font-size: 0; line-height: 1.25;margin-top: -2px;&quot;&gt;&lt;span&gt;&lt;span style=&quot;font-size: 18px;&quot;&gt;Execute Filter Journal by Range of Years Function&lt;/span&gt;&lt;br&gt;&lt;/span&gt;&lt;/div&gt;" style="html=1;overflow=block;blockSpacing=1;whiteSpace=wrap;fontSize=13;spacing=3.8;strokeColor=#006EAF;rounded=1;absoluteArcSize=1;arcSize=9;fillColor=#1ba1e2;strokeWidth=NaN;lucidId=h.avTpXANDxv;fontColor=#ffffff;" vertex="1" parent="1">
          <mxGeometry x="1296.8999999999999" y="714" width="137" height="90" as="geometry" />
        </mxCell>
        <mxCell id="H61x0Zo6AqR9K-A-DZUH-72" style="edgeStyle=orthogonalEdgeStyle;rounded=0;orthogonalLoop=1;jettySize=auto;html=1;exitX=0.5;exitY=1;exitDx=0;exitDy=0;entryX=0.5;entryY=0;entryDx=0;entryDy=0;fontColor=#FFFFFF;strokeColor=#FFFFFF;strokeWidth=3;" edge="1" parent="1" source="H61x0Zo6AqR9K-A-DZUH-73" target="H61x0Zo6AqR9K-A-DZUH-118">
          <mxGeometry relative="1" as="geometry" />
        </mxCell>
        <mxCell id="H61x0Zo6AqR9K-A-DZUH-73" value="&lt;div style=&quot;display: flex; justify-content: center; text-align: center; align-items: baseline; line-height: 1.25; margin-top: -2px;&quot;&gt;&lt;font style=&quot;font-size: 18px;&quot;&gt;Execute Travel Summary Function&lt;/font&gt;&lt;/div&gt;" style="html=1;overflow=block;blockSpacing=1;whiteSpace=wrap;fontSize=13;spacing=3.8;strokeColor=#006EAF;rounded=1;absoluteArcSize=1;arcSize=9;fillColor=#1ba1e2;strokeWidth=NaN;lucidId=h.avwNckP6yK;fontColor=#ffffff;" vertex="1" parent="1">
          <mxGeometry x="1476.8999999999999" y="714" width="137" height="90" as="geometry" />
        </mxCell>
        <mxCell id="H61x0Zo6AqR9K-A-DZUH-74" value="" style="html=1;jettySize=18;whiteSpace=wrap;fontSize=13.3;fontColor=#333333;fontStyle=1;align=center;strokeColor=#FFFFFF;strokeOpacity=100;strokeWidth=3;rounded=1;arcSize=24;edgeStyle=orthogonalEdgeStyle;startArrow=none;endArrow=block;endFill=1;exitX=0.5;exitY=1;entryX=0.5;entryY=-0.004;entryPerimeter=0;lucidId=p.avOH.mr3om;fillColor=#1ba1e2;exitDx=0;exitDy=0;" edge="1" parent="1" target="H61x0Zo6AqR9K-A-DZUH-65" source="H61x0Zo6AqR9K-A-DZUH-6">
          <mxGeometry width="100" height="100" relative="1" as="geometry">
            <Array as="points">
              <mxPoint x="1275" y="658" />
              <mxPoint x="825" y="658" />
            </Array>
            <mxPoint x="1275.8999999999999" y="390" as="sourcePoint" />
          </mxGeometry>
        </mxCell>
        <mxCell id="H61x0Zo6AqR9K-A-DZUH-75" value="Choice Number 1" style="text;html=1;resizable=0;labelBackgroundColor=#000000;align=center;verticalAlign=middle;fontStyle=1;fontColor=#FFFFFF;fontSize=13.3;" vertex="1" parent="H61x0Zo6AqR9K-A-DZUH-74">
          <mxGeometry x="0.9285808477202095" relative="1" as="geometry">
            <mxPoint y="-4" as="offset" />
          </mxGeometry>
        </mxCell>
        <mxCell id="H61x0Zo6AqR9K-A-DZUH-76" value="" style="html=1;jettySize=18;whiteSpace=wrap;fontSize=13.3;fontColor=#333333;fontStyle=1;align=center;strokeColor=#FFFFFF;strokeOpacity=100;strokeWidth=3;rounded=1;arcSize=24;edgeStyle=orthogonalEdgeStyle;startArrow=none;endArrow=block;endFill=1;exitX=0.5;exitY=1;entryX=0.5;entryY=-0.004;entryPerimeter=0;lucidId=t.av9rZI38El;fillColor=#1ba1e2;exitDx=0;exitDy=0;" edge="1" parent="1" target="H61x0Zo6AqR9K-A-DZUH-67" source="H61x0Zo6AqR9K-A-DZUH-6">
          <mxGeometry width="100" height="100" relative="1" as="geometry">
            <Array as="points">
              <mxPoint x="1275" y="658" />
              <mxPoint x="1007" y="658" />
            </Array>
            <mxPoint x="1275.8999999999999" y="390" as="sourcePoint" />
          </mxGeometry>
        </mxCell>
        <mxCell id="H61x0Zo6AqR9K-A-DZUH-77" value="Choice Number 2" style="text;html=1;resizable=0;labelBackgroundColor=#000000;align=center;verticalAlign=middle;fontStyle=1;fontColor=#FFFFFF;fontSize=13.3;" vertex="1" parent="H61x0Zo6AqR9K-A-DZUH-76">
          <mxGeometry x="0.8949558580008756" relative="1" as="geometry">
            <mxPoint y="-3" as="offset" />
          </mxGeometry>
        </mxCell>
        <mxCell id="H61x0Zo6AqR9K-A-DZUH-78" value="" style="html=1;jettySize=18;whiteSpace=wrap;fontSize=13.3;fontColor=#333333;fontStyle=1;align=center;strokeColor=#FFFFFF;strokeOpacity=100;strokeWidth=3;rounded=1;arcSize=24;edgeStyle=orthogonalEdgeStyle;startArrow=none;endArrow=block;endFill=1;exitX=0.5;exitY=1;entryX=0.5;entryY=-0.004;entryPerimeter=0;lucidId=w.avEhGNFrqr;fillColor=#1ba1e2;exitDx=0;exitDy=0;" edge="1" parent="1" target="H61x0Zo6AqR9K-A-DZUH-69" source="H61x0Zo6AqR9K-A-DZUH-6">
          <mxGeometry width="100" height="100" relative="1" as="geometry">
            <Array as="points">
              <mxPoint x="1275" y="658" />
              <mxPoint x="1185" y="658" />
            </Array>
            <mxPoint x="1275.8999999999999" y="390" as="sourcePoint" />
          </mxGeometry>
        </mxCell>
        <mxCell id="H61x0Zo6AqR9K-A-DZUH-79" value="Choice Number 3" style="text;html=1;resizable=0;labelBackgroundColor=#000000;align=center;verticalAlign=middle;fontStyle=1;fontColor=#FFFFFF;fontSize=13.3;" vertex="1" parent="H61x0Zo6AqR9K-A-DZUH-78">
          <mxGeometry x="0.801499409906457" relative="1" as="geometry">
            <mxPoint as="offset" />
          </mxGeometry>
        </mxCell>
        <mxCell id="H61x0Zo6AqR9K-A-DZUH-80" value="" style="html=1;jettySize=18;whiteSpace=wrap;fontSize=13.3;fontColor=#333333;fontStyle=1;align=center;strokeColor=#FFFFFF;strokeOpacity=100;strokeWidth=3;rounded=1;arcSize=24;edgeStyle=orthogonalEdgeStyle;startArrow=none;endArrow=block;endFill=1;entryX=0.5;entryY=-0.004;entryPerimeter=0;lucidId=A.avHlsL_KSj;fillColor=#1ba1e2;exitX=0.5;exitY=1;exitDx=0;exitDy=0;" edge="1" parent="1" target="H61x0Zo6AqR9K-A-DZUH-71" source="H61x0Zo6AqR9K-A-DZUH-6">
          <mxGeometry width="100" height="100" relative="1" as="geometry">
            <Array as="points">
              <mxPoint x="1275" y="658" />
              <mxPoint x="1365" y="658" />
            </Array>
            <mxPoint x="1410" y="560" as="sourcePoint" />
          </mxGeometry>
        </mxCell>
        <mxCell id="H61x0Zo6AqR9K-A-DZUH-81" value="Choice Number 4" style="text;html=1;resizable=0;labelBackgroundColor=#000000;align=center;verticalAlign=middle;fontStyle=1;fontColor=#FFFFFF;fontSize=13.3;" vertex="1" parent="H61x0Zo6AqR9K-A-DZUH-80">
          <mxGeometry x="0.8014994099909527" relative="1" as="geometry">
            <mxPoint as="offset" />
          </mxGeometry>
        </mxCell>
        <mxCell id="H61x0Zo6AqR9K-A-DZUH-82" value="" style="html=1;jettySize=18;whiteSpace=wrap;fontSize=13.3;fontColor=#333333;fontStyle=1;align=center;strokeColor=#FFFFFF;strokeOpacity=100;strokeWidth=3;rounded=1;arcSize=24;edgeStyle=orthogonalEdgeStyle;startArrow=none;endArrow=block;endFill=1;entryX=0.5;entryY=-0.004;entryPerimeter=0;lucidId=D.avOJ-rT-f-;fillColor=#1ba1e2;exitX=0.5;exitY=1;exitDx=0;exitDy=0;" edge="1" parent="1" target="H61x0Zo6AqR9K-A-DZUH-73" source="H61x0Zo6AqR9K-A-DZUH-6">
          <mxGeometry width="100" height="100" relative="1" as="geometry">
            <Array as="points">
              <mxPoint x="1275" y="658" />
              <mxPoint x="1545" y="658" />
            </Array>
            <mxPoint x="1400" y="560" as="sourcePoint" />
          </mxGeometry>
        </mxCell>
        <mxCell id="H61x0Zo6AqR9K-A-DZUH-83" value="Choice Number 5" style="text;html=1;resizable=0;labelBackgroundColor=#000000;align=center;verticalAlign=middle;fontStyle=1;fontColor=#FFFFFF;fontSize=13.3;" vertex="1" parent="H61x0Zo6AqR9K-A-DZUH-82">
          <mxGeometry x="0.8949558580482002" relative="1" as="geometry">
            <mxPoint y="-3" as="offset" />
          </mxGeometry>
        </mxCell>
        <mxCell id="H61x0Zo6AqR9K-A-DZUH-84" value="&lt;div style=&quot;display: flex; justify-content: center; text-align: center; align-items: baseline; line-height: 1.25; margin-top: -2px;&quot;&gt;&lt;font style=&quot;font-size: 18px;&quot;&gt;Execute Return Function&lt;/font&gt;&lt;/div&gt;" style="html=1;overflow=block;blockSpacing=1;whiteSpace=wrap;fontSize=13;spacing=3.8;strokeColor=#006EAF;rounded=1;absoluteArcSize=1;arcSize=9;fillColor=#1ba1e2;strokeWidth=NaN;lucidId=gbbvlOsscx92;fontColor=#ffffff;" vertex="1" parent="1">
          <mxGeometry x="1656.8999999999999" y="714" width="137" height="90" as="geometry" />
        </mxCell>
        <mxCell id="H61x0Zo6AqR9K-A-DZUH-85" value="" style="html=1;jettySize=18;whiteSpace=wrap;fontSize=13.3;fontColor=#333333;fontStyle=1;align=center;strokeColor=#FFFFFF;strokeOpacity=100;strokeWidth=3;rounded=1;arcSize=24;edgeStyle=orthogonalEdgeStyle;startArrow=none;endArrow=block;endFill=1;entryX=0.5;entryY=-0.004;entryPerimeter=0;lucidId=rbbvAix_iRR3;fillColor=#1ba1e2;exitX=0.5;exitY=1;exitDx=0;exitDy=0;" edge="1" parent="1" target="H61x0Zo6AqR9K-A-DZUH-84" source="H61x0Zo6AqR9K-A-DZUH-6">
          <mxGeometry width="100" height="100" relative="1" as="geometry">
            <Array as="points">
              <mxPoint x="1275" y="658" />
              <mxPoint x="1725" y="658" />
            </Array>
            <mxPoint x="1380" y="560" as="sourcePoint" />
          </mxGeometry>
        </mxCell>
        <mxCell id="H61x0Zo6AqR9K-A-DZUH-86" value="Choice Number 6" style="text;html=1;resizable=0;labelBackgroundColor=#000000;align=center;verticalAlign=middle;fontStyle=1;fontColor=#FFFFFF;fontSize=13.3;" vertex="1" parent="H61x0Zo6AqR9K-A-DZUH-85">
          <mxGeometry x="0.9285808477420856" relative="1" as="geometry">
            <mxPoint y="-4" as="offset" />
          </mxGeometry>
        </mxCell>
        <mxCell id="H61x0Zo6AqR9K-A-DZUH-87" style="edgeStyle=orthogonalEdgeStyle;rounded=0;orthogonalLoop=1;jettySize=auto;html=1;exitX=0.5;exitY=1;exitDx=0;exitDy=0;entryX=0.5;entryY=0;entryDx=0;entryDy=0;strokeColor=#FFFFFF;strokeWidth=3;" edge="1" parent="1" source="H61x0Zo6AqR9K-A-DZUH-88" target="H61x0Zo6AqR9K-A-DZUH-90">
          <mxGeometry relative="1" as="geometry" />
        </mxCell>
        <mxCell id="H61x0Zo6AqR9K-A-DZUH-88" value="Input Journal Keyword" style="html=1;overflow=block;blockSpacing=1;whiteSpace=wrap;fontSize=17;spacing=3.8;strokeColor=#006EAF;rounded=1;absoluteArcSize=1;arcSize=9;fillColor=#1ba1e2;strokeWidth=NaN;lucidId=h.avaaxgTNCP;fontColor=#ffffff;" vertex="1" parent="1">
          <mxGeometry x="756.9" y="848" width="137" height="90" as="geometry" />
        </mxCell>
        <mxCell id="H61x0Zo6AqR9K-A-DZUH-89" style="edgeStyle=orthogonalEdgeStyle;rounded=0;orthogonalLoop=1;jettySize=auto;html=1;exitX=0.5;exitY=1;exitDx=0;exitDy=0;entryX=0.5;entryY=0;entryDx=0;entryDy=0;strokeColor=#FFFFFF;strokeWidth=3;" edge="1" parent="1" source="H61x0Zo6AqR9K-A-DZUH-90" target="H61x0Zo6AqR9K-A-DZUH-92">
          <mxGeometry relative="1" as="geometry" />
        </mxCell>
        <mxCell id="H61x0Zo6AqR9K-A-DZUH-90" value="Search Keyword Through all Journal" style="html=1;overflow=block;blockSpacing=1;whiteSpace=wrap;fontSize=17;spacing=3.8;strokeColor=#006EAF;rounded=1;absoluteArcSize=1;arcSize=9;fillColor=#1ba1e2;strokeWidth=NaN;lucidId=h.avaaxgTNCP;fontColor=#ffffff;" vertex="1" parent="1">
          <mxGeometry x="756.9" y="978" width="137" height="90" as="geometry" />
        </mxCell>
        <mxCell id="H61x0Zo6AqR9K-A-DZUH-91" style="edgeStyle=orthogonalEdgeStyle;rounded=0;orthogonalLoop=1;jettySize=auto;html=1;exitX=0.5;exitY=1;exitDx=0;exitDy=0;entryX=0.5;entryY=0;entryDx=0;entryDy=0;strokeColor=#FFFFFF;strokeWidth=3;" edge="1" parent="1" source="H61x0Zo6AqR9K-A-DZUH-92" target="H61x0Zo6AqR9K-A-DZUH-98">
          <mxGeometry relative="1" as="geometry" />
        </mxCell>
        <mxCell id="H61x0Zo6AqR9K-A-DZUH-92" value="Display all Journal has been Found" style="html=1;overflow=block;blockSpacing=1;whiteSpace=wrap;fontSize=17;spacing=3.8;strokeColor=#006EAF;rounded=1;absoluteArcSize=1;arcSize=9;fillColor=#1ba1e2;strokeWidth=NaN;lucidId=h.avaaxgTNCP;fontColor=#ffffff;" vertex="1" parent="1">
          <mxGeometry x="756.9" y="1108" width="137" height="90" as="geometry" />
        </mxCell>
        <mxCell id="H61x0Zo6AqR9K-A-DZUH-121" style="edgeStyle=orthogonalEdgeStyle;rounded=0;orthogonalLoop=1;jettySize=auto;html=1;exitX=0;exitY=0.5;exitDx=0;exitDy=0;entryX=0;entryY=0.5;entryDx=0;entryDy=0;strokeColor=#FF0000;strokeWidth=3;" edge="1" parent="1" source="H61x0Zo6AqR9K-A-DZUH-94" target="H61x0Zo6AqR9K-A-DZUH-4">
          <mxGeometry relative="1" as="geometry">
            <Array as="points">
              <mxPoint x="920" y="1493" />
              <mxPoint x="920" y="330" />
            </Array>
          </mxGeometry>
        </mxCell>
        <mxCell id="H61x0Zo6AqR9K-A-DZUH-122" value="&lt;div style=&quot;color: rgb(255, 255, 255);&quot;&gt;End of Feature&lt;/div&gt;" style="edgeLabel;html=1;align=center;verticalAlign=middle;resizable=0;points=[];labelBackgroundColor=#000000;" vertex="1" connectable="0" parent="H61x0Zo6AqR9K-A-DZUH-121">
          <mxGeometry x="-0.9284" y="-1" relative="1" as="geometry">
            <mxPoint as="offset" />
          </mxGeometry>
        </mxCell>
        <mxCell id="H61x0Zo6AqR9K-A-DZUH-94" value="Display Selected Journal Details" style="html=1;overflow=block;blockSpacing=1;whiteSpace=wrap;fontSize=17;spacing=3.8;strokeColor=#006EAF;rounded=1;absoluteArcSize=1;arcSize=9;fillColor=#1ba1e2;strokeWidth=NaN;lucidId=h.avaaxgTNCP;fontColor=#ffffff;" vertex="1" parent="1">
          <mxGeometry x="756.9" y="1448" width="137" height="90" as="geometry" />
        </mxCell>
        <mxCell id="H61x0Zo6AqR9K-A-DZUH-95" style="edgeStyle=orthogonalEdgeStyle;rounded=0;orthogonalLoop=1;jettySize=auto;html=1;exitX=0.5;exitY=1;exitDx=0;exitDy=0;entryX=0.5;entryY=0;entryDx=0;entryDy=0;fillColor=#008a00;strokeColor=#005700;strokeWidth=3;" edge="1" parent="1" source="H61x0Zo6AqR9K-A-DZUH-98" target="H61x0Zo6AqR9K-A-DZUH-94">
          <mxGeometry relative="1" as="geometry" />
        </mxCell>
        <mxCell id="H61x0Zo6AqR9K-A-DZUH-96" value="&lt;font style=&quot;background-color: rgb(0, 0, 0);&quot; color=&quot;#ffffff&quot;&gt;Valid Journal Number&lt;/font&gt;" style="edgeLabel;html=1;align=center;verticalAlign=middle;resizable=0;points=[];" vertex="1" connectable="0" parent="H61x0Zo6AqR9K-A-DZUH-95">
          <mxGeometry x="-0.1723" y="-3" relative="1" as="geometry">
            <mxPoint x="3" y="-4" as="offset" />
          </mxGeometry>
        </mxCell>
        <mxCell id="H61x0Zo6AqR9K-A-DZUH-119" style="edgeStyle=orthogonalEdgeStyle;rounded=0;orthogonalLoop=1;jettySize=auto;html=1;exitX=0;exitY=0.5;exitDx=0;exitDy=0;entryX=0;entryY=0.5;entryDx=0;entryDy=0;strokeColor=#FF0000;strokeWidth=3;" edge="1" parent="1" source="H61x0Zo6AqR9K-A-DZUH-98" target="H61x0Zo6AqR9K-A-DZUH-4">
          <mxGeometry relative="1" as="geometry">
            <Array as="points">
              <mxPoint x="920" y="1319" />
              <mxPoint x="920" y="330" />
            </Array>
          </mxGeometry>
        </mxCell>
        <mxCell id="H61x0Zo6AqR9K-A-DZUH-120" value="&lt;div&gt;Invalid Number&lt;/div&gt;&lt;div&gt;or&lt;/div&gt;&lt;div&gt;Choice Number 0&lt;/div&gt;" style="edgeLabel;html=1;align=center;verticalAlign=middle;resizable=0;points=[];labelBackgroundColor=#000000;fontColor=#FFFFFF;" vertex="1" connectable="0" parent="H61x0Zo6AqR9K-A-DZUH-119">
          <mxGeometry x="-0.8171" y="-2" relative="1" as="geometry">
            <mxPoint x="45" y="-71" as="offset" />
          </mxGeometry>
        </mxCell>
        <mxCell id="H61x0Zo6AqR9K-A-DZUH-98" value="&lt;font style=&quot;font-size: 18px;&quot;&gt;Determining&lt;/font&gt;&lt;div&gt;&lt;font style=&quot;font-size: 18px;&quot;&gt;Journal&lt;/font&gt;&lt;/div&gt;" style="html=1;overflow=block;blockSpacing=1;whiteSpace=wrap;rhombus;fontSize=16.7;fontColor=#ffffff;spacing=3.8;strokeColor=#006EAF;rounded=1;absoluteArcSize=1;arcSize=9;fillColor=#1ba1e2;strokeWidth=NaN;lucidId=x_avSaIK2IV_;" vertex="1" parent="1">
          <mxGeometry x="744.3" y="1258" width="162.2" height="122" as="geometry" />
        </mxCell>
        <mxCell id="H61x0Zo6AqR9K-A-DZUH-99" style="edgeStyle=orthogonalEdgeStyle;rounded=0;orthogonalLoop=1;jettySize=auto;html=1;exitX=0.5;exitY=1;exitDx=0;exitDy=0;entryX=0.5;entryY=0;entryDx=0;entryDy=0;strokeColor=#FFFFFF;strokeWidth=3;" edge="1" parent="1" source="H61x0Zo6AqR9K-A-DZUH-100" target="H61x0Zo6AqR9K-A-DZUH-102">
          <mxGeometry relative="1" as="geometry" />
        </mxCell>
        <mxCell id="H61x0Zo6AqR9K-A-DZUH-100" value="&lt;div style=&quot;display: flex; justify-content: center; text-align: center; align-items: baseline; line-height: 1.25; margin-top: -2px;&quot;&gt;&lt;font style=&quot;&quot;&gt;&lt;font style=&quot;font-size: 18px;&quot;&gt;Journal Sorted based on Date&lt;/font&gt;&lt;/font&gt;&lt;/div&gt;" style="html=1;overflow=block;blockSpacing=1;whiteSpace=wrap;fontSize=13;spacing=3.8;strokeColor=#006EAF;rounded=1;absoluteArcSize=1;arcSize=9;fillColor=#1ba1e2;strokeWidth=NaN;lucidId=h.avo_qA4~c-;fontColor=#ffffff;" vertex="1" parent="1">
          <mxGeometry x="936.9" y="848" width="140" height="90" as="geometry" />
        </mxCell>
        <mxCell id="H61x0Zo6AqR9K-A-DZUH-123" style="edgeStyle=orthogonalEdgeStyle;rounded=0;orthogonalLoop=1;jettySize=auto;html=1;exitX=1;exitY=0.5;exitDx=0;exitDy=0;entryX=0;entryY=0.5;entryDx=0;entryDy=0;strokeColor=#FF0000;strokeWidth=3;" edge="1" parent="1" source="H61x0Zo6AqR9K-A-DZUH-102" target="H61x0Zo6AqR9K-A-DZUH-4">
          <mxGeometry relative="1" as="geometry">
            <Array as="points">
              <mxPoint x="1100" y="1023" />
              <mxPoint x="1100" y="330" />
            </Array>
          </mxGeometry>
        </mxCell>
        <mxCell id="H61x0Zo6AqR9K-A-DZUH-124" value="&lt;span style=&quot;color: rgb(255, 255, 255); background-color: rgb(0, 0, 0);&quot;&gt;End of Function&lt;/span&gt;" style="edgeLabel;html=1;align=center;verticalAlign=middle;resizable=0;points=[];" vertex="1" connectable="0" parent="H61x0Zo6AqR9K-A-DZUH-123">
          <mxGeometry x="-0.8136" y="-1" relative="1" as="geometry">
            <mxPoint y="-9" as="offset" />
          </mxGeometry>
        </mxCell>
        <mxCell id="H61x0Zo6AqR9K-A-DZUH-102" value="&lt;div style=&quot;display: flex; justify-content: center; text-align: center; align-items: baseline; line-height: 1.25; margin-top: -2px;&quot;&gt;&lt;font style=&quot;&quot;&gt;&lt;font style=&quot;font-size: 18px;&quot;&gt;Display Sorted Journal List&lt;/font&gt;&lt;/font&gt;&lt;/div&gt;" style="html=1;overflow=block;blockSpacing=1;whiteSpace=wrap;fontSize=13;spacing=3.8;strokeColor=#006EAF;rounded=1;absoluteArcSize=1;arcSize=9;fillColor=#1ba1e2;strokeWidth=NaN;lucidId=h.avo_qA4~c-;fontColor=#ffffff;" vertex="1" parent="1">
          <mxGeometry x="936.9" y="978" width="140" height="90" as="geometry" />
        </mxCell>
        <mxCell id="H61x0Zo6AqR9K-A-DZUH-103" style="edgeStyle=orthogonalEdgeStyle;rounded=0;orthogonalLoop=1;jettySize=auto;html=1;exitX=0.5;exitY=1;exitDx=0;exitDy=0;entryX=0.5;entryY=0;entryDx=0;entryDy=0;strokeColor=#FFFFFF;strokeWidth=3;" edge="1" parent="1" source="H61x0Zo6AqR9K-A-DZUH-104" target="H61x0Zo6AqR9K-A-DZUH-106">
          <mxGeometry relative="1" as="geometry" />
        </mxCell>
        <mxCell id="H61x0Zo6AqR9K-A-DZUH-104" value="&lt;div style=&quot;display: flex; justify-content: center; text-align: center; align-items: baseline; line-height: 1.25; margin-top: -2px;&quot;&gt;&lt;font style=&quot;font-size: 18px;&quot;&gt;&lt;span style=&quot;font-size: 17px;&quot;&gt;Input Journal Year&lt;/span&gt;&lt;br&gt;&lt;/font&gt;&lt;/div&gt;" style="html=1;overflow=block;blockSpacing=1;whiteSpace=wrap;fontSize=13;spacing=3.8;strokeColor=#006EAF;rounded=1;absoluteArcSize=1;arcSize=9;fillColor=#1ba1e2;strokeWidth=NaN;lucidId=h.avfyT31Oo9;fontColor=#ffffff;" vertex="1" parent="1">
          <mxGeometry x="1116.8999999999999" y="848" width="137" height="90" as="geometry" />
        </mxCell>
        <mxCell id="H61x0Zo6AqR9K-A-DZUH-105" style="edgeStyle=orthogonalEdgeStyle;rounded=0;orthogonalLoop=1;jettySize=auto;html=1;exitX=0.5;exitY=1;exitDx=0;exitDy=0;entryX=0.5;entryY=0;entryDx=0;entryDy=0;strokeColor=#FFFFFF;strokeWidth=3;" edge="1" parent="1" source="H61x0Zo6AqR9K-A-DZUH-106" target="H61x0Zo6AqR9K-A-DZUH-108">
          <mxGeometry relative="1" as="geometry" />
        </mxCell>
        <mxCell id="H61x0Zo6AqR9K-A-DZUH-106" value="&lt;div style=&quot;display: flex; justify-content: center; text-align: center; align-items: baseline; line-height: 1.25; margin-top: -2px;&quot;&gt;&lt;font style=&quot;font-size: 18px;&quot;&gt;&lt;span style=&quot;font-size: 17px;&quot;&gt;Search Year Through all Journal&lt;/span&gt;&lt;br&gt;&lt;/font&gt;&lt;/div&gt;" style="html=1;overflow=block;blockSpacing=1;whiteSpace=wrap;fontSize=13;spacing=3.8;strokeColor=#006EAF;rounded=1;absoluteArcSize=1;arcSize=9;fillColor=#1ba1e2;strokeWidth=NaN;lucidId=h.avfyT31Oo9;fontColor=#ffffff;" vertex="1" parent="1">
          <mxGeometry x="1116.8999999999999" y="978" width="137" height="90" as="geometry" />
        </mxCell>
        <mxCell id="H61x0Zo6AqR9K-A-DZUH-125" style="edgeStyle=orthogonalEdgeStyle;rounded=0;orthogonalLoop=1;jettySize=auto;html=1;exitX=0;exitY=0.5;exitDx=0;exitDy=0;entryX=0;entryY=0.5;entryDx=0;entryDy=0;strokeColor=#FF0000;strokeWidth=3;" edge="1" parent="1" source="H61x0Zo6AqR9K-A-DZUH-108" target="H61x0Zo6AqR9K-A-DZUH-4">
          <mxGeometry relative="1" as="geometry">
            <Array as="points">
              <mxPoint x="1100" y="1153" />
              <mxPoint x="1100" y="330" />
            </Array>
          </mxGeometry>
        </mxCell>
        <mxCell id="H61x0Zo6AqR9K-A-DZUH-126" value="&lt;span style=&quot;color: rgb(255, 255, 255); background-color: rgb(0, 0, 0);&quot;&gt;End of Function&lt;/span&gt;" style="edgeLabel;html=1;align=center;verticalAlign=middle;resizable=0;points=[];" vertex="1" connectable="0" parent="H61x0Zo6AqR9K-A-DZUH-125">
          <mxGeometry x="-0.8294" relative="1" as="geometry">
            <mxPoint as="offset" />
          </mxGeometry>
        </mxCell>
        <mxCell id="H61x0Zo6AqR9K-A-DZUH-108" value="Display all Journal has been Found" style="html=1;overflow=block;blockSpacing=1;whiteSpace=wrap;fontSize=17;spacing=3.8;strokeColor=#006EAF;rounded=1;absoluteArcSize=1;arcSize=9;fillColor=#1ba1e2;strokeWidth=NaN;lucidId=h.avaaxgTNCP;fontColor=#ffffff;" vertex="1" parent="1">
          <mxGeometry x="1116.8999999999999" y="1108" width="137" height="90" as="geometry" />
        </mxCell>
        <mxCell id="H61x0Zo6AqR9K-A-DZUH-109" style="edgeStyle=orthogonalEdgeStyle;rounded=0;orthogonalLoop=1;jettySize=auto;html=1;exitX=0.5;exitY=1;exitDx=0;exitDy=0;entryX=0.5;entryY=0;entryDx=0;entryDy=0;strokeColor=#FFFFFF;strokeWidth=3;" edge="1" parent="1" source="H61x0Zo6AqR9K-A-DZUH-110" target="H61x0Zo6AqR9K-A-DZUH-112">
          <mxGeometry relative="1" as="geometry" />
        </mxCell>
        <mxCell id="H61x0Zo6AqR9K-A-DZUH-110" value="&lt;div style=&quot;display: flex; justify-content: center; text-align: center; align-items: baseline; line-height: 1.25; margin-top: -2px;&quot;&gt;&lt;font style=&quot;font-size: 18px;&quot;&gt;&lt;span style=&quot;font-size: 17px;&quot;&gt;Input Journal Start Years&lt;/span&gt;&lt;br&gt;&lt;/font&gt;&lt;/div&gt;" style="html=1;overflow=block;blockSpacing=1;whiteSpace=wrap;fontSize=13;spacing=3.8;strokeColor=#006EAF;rounded=1;absoluteArcSize=1;arcSize=9;fillColor=#1ba1e2;strokeWidth=NaN;lucidId=h.avfyT31Oo9;fontColor=#ffffff;" vertex="1" parent="1">
          <mxGeometry x="1296.8999999999999" y="848" width="137" height="90" as="geometry" />
        </mxCell>
        <mxCell id="H61x0Zo6AqR9K-A-DZUH-111" style="edgeStyle=orthogonalEdgeStyle;rounded=0;orthogonalLoop=1;jettySize=auto;html=1;exitX=0.5;exitY=1;exitDx=0;exitDy=0;entryX=0.5;entryY=0;entryDx=0;entryDy=0;strokeColor=#FFFFFF;strokeWidth=3;" edge="1" parent="1" source="H61x0Zo6AqR9K-A-DZUH-112" target="H61x0Zo6AqR9K-A-DZUH-114">
          <mxGeometry relative="1" as="geometry" />
        </mxCell>
        <mxCell id="H61x0Zo6AqR9K-A-DZUH-112" value="&lt;div style=&quot;display: flex; justify-content: center; text-align: center; align-items: baseline; line-height: 1.25; margin-top: -2px;&quot;&gt;&lt;font style=&quot;font-size: 18px;&quot;&gt;&lt;span style=&quot;font-size: 17px;&quot;&gt;Input Journal End Years&lt;/span&gt;&lt;br&gt;&lt;/font&gt;&lt;/div&gt;" style="html=1;overflow=block;blockSpacing=1;whiteSpace=wrap;fontSize=13;spacing=3.8;strokeColor=#006EAF;rounded=1;absoluteArcSize=1;arcSize=9;fillColor=#1ba1e2;strokeWidth=NaN;lucidId=h.avfyT31Oo9;fontColor=#ffffff;" vertex="1" parent="1">
          <mxGeometry x="1296.8999999999999" y="978" width="137" height="90" as="geometry" />
        </mxCell>
        <mxCell id="H61x0Zo6AqR9K-A-DZUH-113" style="edgeStyle=orthogonalEdgeStyle;rounded=0;orthogonalLoop=1;jettySize=auto;html=1;exitX=0.5;exitY=1;exitDx=0;exitDy=0;entryX=0.5;entryY=0;entryDx=0;entryDy=0;strokeColor=#FFFFFF;strokeWidth=3;" edge="1" parent="1" source="H61x0Zo6AqR9K-A-DZUH-114" target="H61x0Zo6AqR9K-A-DZUH-116">
          <mxGeometry relative="1" as="geometry" />
        </mxCell>
        <mxCell id="H61x0Zo6AqR9K-A-DZUH-114" value="&lt;div style=&quot;display: flex; justify-content: center; text-align: center; align-items: baseline; line-height: 1.25; margin-top: -2px;&quot;&gt;&lt;font style=&quot;font-size: 18px;&quot;&gt;&lt;span style=&quot;font-size: 17px;&quot;&gt;Search Year Range Through all Journal&lt;/span&gt;&lt;br&gt;&lt;/font&gt;&lt;/div&gt;" style="html=1;overflow=block;blockSpacing=1;whiteSpace=wrap;fontSize=13;spacing=3.8;strokeColor=#006EAF;rounded=1;absoluteArcSize=1;arcSize=9;fillColor=#1ba1e2;strokeWidth=NaN;lucidId=h.avfyT31Oo9;fontColor=#ffffff;" vertex="1" parent="1">
          <mxGeometry x="1296.8999999999999" y="1108" width="137" height="90" as="geometry" />
        </mxCell>
        <mxCell id="H61x0Zo6AqR9K-A-DZUH-127" style="edgeStyle=orthogonalEdgeStyle;rounded=0;orthogonalLoop=1;jettySize=auto;html=1;exitX=1;exitY=0.5;exitDx=0;exitDy=0;entryX=1;entryY=0.5;entryDx=0;entryDy=0;strokeColor=#FF0000;strokeWidth=3;" edge="1" parent="1" source="H61x0Zo6AqR9K-A-DZUH-116" target="H61x0Zo6AqR9K-A-DZUH-4">
          <mxGeometry relative="1" as="geometry">
            <Array as="points">
              <mxPoint x="1450" y="1283" />
              <mxPoint x="1450" y="330" />
            </Array>
          </mxGeometry>
        </mxCell>
        <mxCell id="H61x0Zo6AqR9K-A-DZUH-128" value="&lt;span style=&quot;color: rgb(255, 255, 255); background-color: rgb(0, 0, 0);&quot;&gt;End of Function&lt;/span&gt;" style="edgeLabel;html=1;align=center;verticalAlign=middle;resizable=0;points=[];" vertex="1" connectable="0" parent="H61x0Zo6AqR9K-A-DZUH-127">
          <mxGeometry x="-0.8626" y="1" relative="1" as="geometry">
            <mxPoint y="-8" as="offset" />
          </mxGeometry>
        </mxCell>
        <mxCell id="H61x0Zo6AqR9K-A-DZUH-116" value="Display all Journal has been Found" style="html=1;overflow=block;blockSpacing=1;whiteSpace=wrap;fontSize=17;spacing=3.8;strokeColor=#006EAF;rounded=1;absoluteArcSize=1;arcSize=9;fillColor=#1ba1e2;strokeWidth=NaN;lucidId=h.avaaxgTNCP;fontColor=#ffffff;" vertex="1" parent="1">
          <mxGeometry x="1296.8999999999999" y="1238" width="137" height="90" as="geometry" />
        </mxCell>
        <mxCell id="H61x0Zo6AqR9K-A-DZUH-129" style="edgeStyle=orthogonalEdgeStyle;rounded=0;orthogonalLoop=1;jettySize=auto;html=1;exitX=0;exitY=0.5;exitDx=0;exitDy=0;entryX=1;entryY=0.5;entryDx=0;entryDy=0;strokeColor=#FF0000;strokeWidth=3;" edge="1" parent="1" source="H61x0Zo6AqR9K-A-DZUH-118" target="H61x0Zo6AqR9K-A-DZUH-4">
          <mxGeometry relative="1" as="geometry">
            <Array as="points">
              <mxPoint x="1450" y="893" />
              <mxPoint x="1450" y="330" />
            </Array>
          </mxGeometry>
        </mxCell>
        <mxCell id="H61x0Zo6AqR9K-A-DZUH-130" value="&lt;span style=&quot;color: rgb(255, 255, 255); background-color: rgb(0, 0, 0);&quot;&gt;End of Function&lt;/span&gt;" style="edgeLabel;html=1;align=center;verticalAlign=middle;resizable=0;points=[];" vertex="1" connectable="0" parent="H61x0Zo6AqR9K-A-DZUH-129">
          <mxGeometry x="-0.9456" relative="1" as="geometry">
            <mxPoint x="-8" y="-63" as="offset" />
          </mxGeometry>
        </mxCell>
        <mxCell id="H61x0Zo6AqR9K-A-DZUH-118" value="Display Travel Summary based all Journal" style="html=1;overflow=block;blockSpacing=1;whiteSpace=wrap;fontSize=17;spacing=3.8;strokeColor=#006EAF;rounded=1;absoluteArcSize=1;arcSize=9;fillColor=#1ba1e2;strokeWidth=NaN;lucidId=h.avaaxgTNCP;fontColor=#ffffff;" vertex="1" parent="1">
          <mxGeometry x="1476.8999999999999" y="848" width="137" height="90" as="geometry" />
        </mxCell>
        <mxCell id="H61x0Zo6AqR9K-A-DZUH-131" value="&lt;span style=&quot;color: rgb(255, 255, 255); font-size: 17px; text-wrap: wrap;&quot;&gt;Main Menu&lt;/span&gt;" style="verticalLabelPosition=middle;verticalAlign=middle;html=1;shape=mxgraph.flowchart.on-page_reference;fillColor=none;strokeColor=#FFFFFF;strokeWidth=10;labelPosition=center;align=center;" vertex="1" parent="1">
          <mxGeometry x="1670.4" y="848" width="110" height="110" as="geometry" />
        </mxCell>
        <mxCell id="H61x0Zo6AqR9K-A-DZUH-132" style="edgeStyle=orthogonalEdgeStyle;rounded=0;orthogonalLoop=1;jettySize=auto;html=1;exitX=0.5;exitY=1;exitDx=0;exitDy=0;entryX=0.5;entryY=0;entryDx=0;entryDy=0;entryPerimeter=0;strokeColor=#FF0000;strokeWidth=3;" edge="1" parent="1" source="H61x0Zo6AqR9K-A-DZUH-84" target="H61x0Zo6AqR9K-A-DZUH-131">
          <mxGeometry relative="1" as="geometry" />
        </mxCell>
        <mxCell id="H61x0Zo6AqR9K-A-DZUH-133" value="&lt;span style=&quot;color: rgb(255, 255, 255); background-color: rgb(0, 0, 0);&quot;&gt;End of Function&lt;/span&gt;" style="edgeLabel;html=1;align=center;verticalAlign=middle;resizable=0;points=[];" vertex="1" connectable="0" parent="H61x0Zo6AqR9K-A-DZUH-132">
          <mxGeometry x="-0.3623" y="-1" relative="1" as="geometry">
            <mxPoint as="offset" />
          </mxGeometry>
        </mxCell>
        <mxCell id="H61x0Zo6AqR9K-A-DZUH-93" value="&lt;font style=&quot;background-color: rgb(0, 0, 0);&quot; color=&quot;#ffffff&quot;&gt;End of Function&lt;/font&gt;" style="edgeLabel;html=1;align=center;verticalAlign=middle;resizable=0;points=[];" vertex="1" connectable="0" parent="1">
          <mxGeometry x="921.9" y="1430.0042857142862" as="geometry" />
        </mxCell>
      </root>
    </mxGraphModel>
  </diagram>
</mxfile>
